<?xml version="1.0" standalone="no"?>
<!DOCTYPE svg PUBLIC "-//W3C//DTD SVG 20010904//EN"
 "http://www.w3.org/TR/2001/REC-SVG-20010904/DTD/svg10.dtd">
<svg version="1.0" xmlns="http://www.w3.org/2000/svg"
 width="64.000000pt" height="64.000000pt" viewBox="0 0 64.000000 64.000000"
 preserveAspectRatio="xMidYMid meet">

<g transform="translate(0.000000,64.000000) scale(0.100000,-0.100000)"
fill="#ffffff" stroke="none">
<path d="M167 554 c-4 -4 -7 -22 -7 -40 0 -31 -2 -33 -37 -36 l-38 -3 0 -195
0 -195 195 0 195 0 3 37 c3 35 5 37 40 40 l37 3 0 195 0 195 -191 3 c-104 1
-193 -1 -197 -4z m353 -194 c0 -153 -1 -160 -20 -160 -18 0 -20 8 -22 138 l-3
137 -137 3 c-130 2 -138 4 -138 22 0 19 7 20 160 20 l160 0 0 -160z m-80 -80
l0 -160 -160 0 -160 0 0 160 0 160 160 0 160 0 0 -160z"/>
</g>
</svg>
