<?xml version="1.0" standalone="no"?>
<!DOCTYPE svg PUBLIC "-//W3C//DTD SVG 20010904//EN"
 "http://www.w3.org/TR/2001/REC-SVG-20010904/DTD/svg10.dtd">
<svg version="1.0" xmlns="http://www.w3.org/2000/svg"
 width="64.000000pt" height="64.000000pt" viewBox="0 0 64.000000 64.000000"
 preserveAspectRatio="xMidYMid meet">

<g transform="translate(0.000000,64.000000) scale(0.100000,-0.100000)"
fill="#ffffff" stroke="none">
<path d="M100 540 c-19 -19 -20 -33 -20 -220 0 -187 1 -201 20 -220 19 -19 33
-20 220 -20 187 0 201 1 220 20 19 19 20 33 20 220 0 187 -1 201 -20 220 -19
19 -33 20 -220 20 -187 0 -201 -1 -220 -20z m415 -220 l0 -195 -195 0 -195 0
-3 185 c-1 101 0 190 3 197 3 11 46 13 197 11 l193 -3 0 -195z"/>
<path d="M200 220 c0 -19 7 -20 120 -20 113 0 120 1 120 20 0 19 -7 20 -120
20 -113 0 -120 -1 -120 -20z"/>
</g>
</svg>
